<svg width="28" height="28" viewBox="0 0 28 28" fill="none" xmlns="http://www.w3.org/2000/svg">
<path d="M0.666828 14C0.666828 6.64758 6.64778 0.666626 14.0002 0.666626C21.3525 0.666626 27.3335 6.64758 27.3335 14C27.3335 21.3523 21.3525 27.3333 14.0002 27.3333C6.64778 27.3333 0.666828 21.3523 0.666828 14ZM25.4668 14C25.4668 7.67615 20.324 2.53329 14.0002 2.53329C7.67635 2.53329 2.53349 7.67615 2.53349 14C2.53349 20.3238 7.67635 25.4666 14.0002 25.4666C20.324 25.4666 25.4668 20.3238 25.4668 14Z" fill="#FF2C2C" stroke="#FF2C2C" stroke-width="0.4"/>
<path d="M10.8824 13.3405L14.8062 9.41666C15.1708 9.05203 15.764 9.05203 16.1286 9.41666C16.4933 9.78128 16.4933 10.3745 16.1286 10.7391L12.8633 14.0044L16.1286 17.2697C16.4933 17.6343 16.4933 18.2275 16.1286 18.5921C15.949 18.7717 15.7096 18.8643 15.4701 18.8643C15.2307 18.8643 14.9912 18.7717 14.8116 18.5921L10.8878 14.6683C10.5178 14.2928 10.5178 13.7051 10.8824 13.3405Z" fill="#FF2C2C" stroke="#FF2C2C" stroke-width="0.4"/>
</svg>
