<svg width="16" height="17" viewBox="0 0 16 17" fill="none" xmlns="http://www.w3.org/2000/svg">
<path d="M12 1.83301H4.00002C3.26364 1.83301 2.66669 2.42996 2.66669 3.16634V13.833C2.66669 14.5694 3.26364 15.1663 4.00002 15.1663H12C12.7364 15.1663 13.3334 14.5694 13.3334 13.833V3.16634C13.3334 2.42996 12.7364 1.83301 12 1.83301Z" stroke="#535353" stroke-linecap="round" stroke-linejoin="round"/>
<path d="M7.99998 12.5003C9.47274 12.5003 10.6666 11.3064 10.6666 9.83366C10.6666 8.3609 9.47274 7.16699 7.99998 7.16699C6.52722 7.16699 5.33331 8.3609 5.33331 9.83366C5.33331 11.3064 6.52722 12.5003 7.99998 12.5003Z" stroke="#535353" stroke-linecap="round" stroke-linejoin="round"/>
<path d="M8 4.5H8.00667" stroke="#535353" stroke-linecap="round" stroke-linejoin="round"/>
</svg>
