<svg width="223" height="27" viewBox="0 0 223 27" fill="none" xmlns="http://www.w3.org/2000/svg">
<path d="M213.707 20.776V5.82401H217.039V9.94001L216.647 8.73601C217.095 7.72801 217.795 6.96267 218.747 6.44001C219.717 5.91734 220.921 5.65601 222.359 5.65601V8.98801C222.209 8.95067 222.069 8.93201 221.939 8.93201C221.808 8.91334 221.677 8.90401 221.547 8.90401C220.221 8.90401 219.167 9.29601 218.383 10.08C217.599 10.8453 217.207 11.9933 217.207 13.524V20.776H213.707Z" fill="#FF0000"/>
<path d="M204.997 20.972C203.335 20.972 201.879 20.6453 200.629 19.992C199.397 19.32 198.435 18.4053 197.745 17.248C197.073 16.0907 196.737 14.7747 196.737 13.3C196.737 11.8067 197.063 10.4907 197.717 9.35201C198.389 8.19467 199.303 7.28934 200.461 6.63601C201.637 5.98267 202.971 5.65601 204.465 5.65601C205.921 5.65601 207.218 5.97334 208.357 6.60801C209.495 7.24267 210.391 8.13867 211.045 9.29601C211.698 10.4533 212.025 11.816 212.025 13.384C212.025 13.5333 212.015 13.7013 211.997 13.888C211.997 14.0747 211.987 14.252 211.969 14.42H199.509V12.096H210.121L208.749 12.824C208.767 11.9653 208.59 11.2093 208.217 10.556C207.843 9.90267 207.33 9.38934 206.677 9.01601C206.042 8.64267 205.305 8.45601 204.465 8.45601C203.606 8.45601 202.85 8.64267 202.197 9.01601C201.562 9.38934 201.058 9.91201 200.685 10.584C200.33 11.2373 200.153 12.012 200.153 12.908V13.468C200.153 14.364 200.358 15.1573 200.769 15.848C201.179 16.5387 201.758 17.0707 202.505 17.444C203.251 17.8173 204.11 18.004 205.081 18.004C205.921 18.004 206.677 17.8733 207.349 17.612C208.021 17.3507 208.618 16.94 209.141 16.38L211.017 18.536C210.345 19.32 209.495 19.9267 208.469 20.356C207.461 20.7667 206.303 20.972 204.997 20.972Z" fill="#FF0000"/>
<path d="M188.937 5.65601C190.132 5.65601 191.196 5.88934 192.129 6.35601C193.081 6.82267 193.828 7.54134 194.369 8.51201C194.91 9.46401 195.181 10.696 195.181 12.208V20.776H191.681V12.656C191.681 11.3307 191.364 10.3413 190.729 9.68801C190.113 9.03467 189.245 8.70801 188.125 8.70801C187.304 8.70801 186.576 8.87601 185.941 9.21201C185.306 9.54801 184.812 10.052 184.457 10.724C184.121 11.3773 183.953 12.208 183.953 13.216V20.776H180.453V5.82401H183.785V9.85601L183.197 8.62401C183.72 7.67201 184.476 6.94401 185.465 6.44001C186.473 5.91734 187.63 5.65601 188.937 5.65601Z" fill="#FF0000"/>
<path d="M170.512 20.776V5.82401H173.844V9.94001L173.452 8.73601C173.9 7.72801 174.6 6.96267 175.552 6.44001C176.523 5.91734 177.727 5.65601 179.164 5.65601V8.98801C179.015 8.95067 178.875 8.93201 178.744 8.93201C178.614 8.91334 178.483 8.90401 178.352 8.90401C177.027 8.90401 175.972 9.29601 175.188 10.08C174.404 10.8453 174.012 11.9933 174.012 13.524V20.776H170.512Z" fill="#FF0000"/>
<path d="M160.865 20.972C159.335 20.972 157.972 20.6453 156.777 19.992C155.583 19.32 154.64 18.4053 153.949 17.248C153.259 16.0907 152.913 14.7747 152.913 13.3C152.913 11.8067 153.259 10.4907 153.949 9.35201C154.64 8.19467 155.583 7.28934 156.777 6.63601C157.972 5.98267 159.335 5.65601 160.865 5.65601C162.415 5.65601 163.787 5.98267 164.981 6.63601C166.195 7.28934 167.137 8.18534 167.809 9.32401C168.5 10.4627 168.845 11.788 168.845 13.3C168.845 14.7747 168.5 16.0907 167.809 17.248C167.137 18.4053 166.195 19.32 164.981 19.992C163.787 20.6453 162.415 20.972 160.865 20.972ZM160.865 17.976C161.724 17.976 162.489 17.7893 163.161 17.416C163.833 17.0427 164.356 16.5013 164.729 15.792C165.121 15.0827 165.317 14.252 165.317 13.3C165.317 12.3293 165.121 11.4987 164.729 10.808C164.356 10.0987 163.833 9.55734 163.161 9.18401C162.489 8.81067 161.733 8.62401 160.893 8.62401C160.035 8.62401 159.269 8.81067 158.597 9.18401C157.944 9.55734 157.421 10.0987 157.029 10.808C156.637 11.4987 156.441 12.3293 156.441 13.3C156.441 14.252 156.637 15.0827 157.029 15.792C157.421 16.5013 157.944 17.0427 158.597 17.416C159.269 17.7893 160.025 17.976 160.865 17.976Z" fill="#FF0000"/>
<path d="M145.464 21.056C143.97 21.056 142.58 20.8133 141.292 20.328C140.022 19.824 138.912 19.124 137.96 18.228C137.026 17.3133 136.298 16.24 135.776 15.008C135.253 13.776 134.992 12.432 134.992 10.976C134.992 9.52 135.253 8.176 135.776 6.944C136.298 5.712 137.036 4.648 137.988 3.752C138.94 2.83733 140.05 2.13733 141.32 1.652C142.589 1.148 143.98 0.895996 145.492 0.895996C147.097 0.895996 148.562 1.176 149.888 1.736C151.213 2.27733 152.333 3.08933 153.248 4.172L150.896 6.384C150.186 5.61866 149.393 5.04933 148.516 4.676C147.638 4.284 146.686 4.088 145.66 4.088C144.633 4.088 143.69 4.256 142.832 4.592C141.992 4.928 141.254 5.404 140.62 6.02C140.004 6.636 139.518 7.364 139.164 8.204C138.828 9.044 138.66 9.968 138.66 10.976C138.66 11.984 138.828 12.908 139.164 13.748C139.518 14.588 140.004 15.316 140.62 15.932C141.254 16.548 141.992 17.024 142.832 17.36C143.69 17.696 144.633 17.864 145.66 17.864C146.686 17.864 147.638 17.6773 148.516 17.304C149.393 16.912 150.186 16.324 150.896 15.54L153.248 17.78C152.333 18.844 151.213 19.656 149.888 20.216C148.562 20.776 147.088 21.056 145.464 21.056Z" fill="#FF0000"/>
<path d="M121.287 20.972C119.626 20.972 118.17 20.6453 116.919 19.992C115.687 19.32 114.726 18.4053 114.035 17.248C113.363 16.0907 113.027 14.7747 113.027 13.3C113.027 11.8067 113.354 10.4907 114.007 9.35201C114.679 8.19467 115.594 7.28934 116.751 6.63601C117.927 5.98267 119.262 5.65601 120.755 5.65601C122.211 5.65601 123.509 5.97334 124.647 6.60801C125.786 7.24267 126.682 8.13867 127.335 9.29601C127.989 10.4533 128.315 11.816 128.315 13.384C128.315 13.5333 128.306 13.7013 128.287 13.888C128.287 14.0747 128.278 14.252 128.259 14.42H115.799V12.096H126.411L125.039 12.824C125.058 11.9653 124.881 11.2093 124.507 10.556C124.134 9.90267 123.621 9.38934 122.967 9.01601C122.333 8.64267 121.595 8.45601 120.755 8.45601C119.897 8.45601 119.141 8.64267 118.487 9.01601C117.853 9.38934 117.349 9.91201 116.975 10.584C116.621 11.2373 116.443 12.012 116.443 12.908V13.468C116.443 14.364 116.649 15.1573 117.059 15.848C117.47 16.5387 118.049 17.0707 118.795 17.444C119.542 17.8173 120.401 18.004 121.371 18.004C122.211 18.004 122.967 17.8733 123.639 17.612C124.311 17.3507 124.909 16.94 125.431 16.38L127.307 18.536C126.635 19.32 125.786 19.9267 124.759 20.356C123.751 20.7667 122.594 20.972 121.287 20.972Z" fill="black"/>
<path d="M105.55 20.972C103.888 20.972 102.432 20.6453 101.182 19.992C99.9495 19.32 98.9882 18.4053 98.2975 17.248C97.6255 16.0907 97.2896 14.7747 97.2896 13.3C97.2896 11.8067 97.6162 10.4907 98.2695 9.35201C98.9415 8.19467 99.8562 7.28934 101.014 6.63601C102.19 5.98267 103.524 5.65601 105.018 5.65601C106.474 5.65601 107.771 5.97334 108.91 6.60801C110.048 7.24267 110.944 8.13867 111.598 9.29601C112.251 10.4533 112.578 11.816 112.578 13.384C112.578 13.5333 112.568 13.7013 112.55 13.888C112.55 14.0747 112.54 14.252 112.522 14.42H100.062V12.096H110.674L109.302 12.824C109.32 11.9653 109.143 11.2093 108.77 10.556C108.396 9.90267 107.883 9.38934 107.23 9.01601C106.595 8.64267 105.858 8.45601 105.018 8.45601C104.159 8.45601 103.403 8.64267 102.75 9.01601C102.115 9.38934 101.611 9.91201 101.238 10.584C100.883 11.2373 100.706 12.012 100.706 12.908V13.468C100.706 14.364 100.911 15.1573 101.322 15.848C101.732 16.5387 102.311 17.0707 103.058 17.444C103.804 17.8173 104.663 18.004 105.634 18.004C106.474 18.004 107.23 17.8733 107.902 17.612C108.574 17.3507 109.171 16.94 109.694 16.38L111.57 18.536C110.898 19.32 110.048 19.9267 109.022 20.356C108.014 20.7667 106.856 20.972 105.55 20.972Z" fill="black"/>
<path d="M85.6563 26.404C84.9283 26.404 84.2003 26.2826 83.4723 26.04C82.7443 25.7973 82.1377 25.4613 81.6523 25.032L83.0523 22.456C83.407 22.7733 83.8083 23.0253 84.2563 23.212C84.7043 23.3986 85.1617 23.492 85.6283 23.492C86.263 23.492 86.7763 23.3333 87.1683 23.016C87.5603 22.6986 87.9243 22.1666 88.2603 21.42L89.1283 19.46L89.4083 19.04L95.0643 5.82397H98.4243L91.4243 21.98C90.9577 23.1 90.435 23.9866 89.8563 24.64C89.2963 25.2933 88.6617 25.7506 87.9523 26.012C87.2617 26.2733 86.4963 26.404 85.6563 26.404ZM88.7363 21.308L81.9883 5.82397H85.6283L91.1163 18.732L88.7363 21.308Z" fill="black"/>
<path d="M75.1873 20.972C73.6567 20.972 72.294 20.6453 71.0993 19.992C69.9047 19.32 68.962 18.4053 68.2713 17.248C67.5807 16.0907 67.2354 14.7747 67.2354 13.3C67.2354 11.8067 67.5807 10.4907 68.2713 9.35201C68.962 8.19467 69.9047 7.28934 71.0993 6.63601C72.294 5.98267 73.6567 5.65601 75.1873 5.65601C76.7367 5.65601 78.1087 5.98267 79.3034 6.63601C80.5167 7.28934 81.4593 8.18534 82.1313 9.32401C82.822 10.4627 83.1674 11.788 83.1674 13.3C83.1674 14.7747 82.822 16.0907 82.1313 17.248C81.4593 18.4053 80.5167 19.32 79.3034 19.992C78.1087 20.6453 76.7367 20.972 75.1873 20.972ZM75.1873 17.976C76.046 17.976 76.8114 17.7893 77.4834 17.416C78.1554 17.0427 78.678 16.5013 79.0513 15.792C79.4433 15.0827 79.6394 14.252 79.6394 13.3C79.6394 12.3293 79.4433 11.4987 79.0513 10.808C78.678 10.0987 78.1554 9.55734 77.4834 9.18401C76.8114 8.81067 76.0553 8.62401 75.2153 8.62401C74.3567 8.62401 73.5913 8.81067 72.9193 9.18401C72.266 9.55734 71.7433 10.0987 71.3513 10.808C70.9593 11.4987 70.7634 12.3293 70.7634 13.3C70.7634 14.252 70.9593 15.0827 71.3513 15.792C71.7433 16.5013 72.266 17.0427 72.9193 17.416C73.5913 17.7893 74.3473 17.976 75.1873 17.976Z" fill="black"/>
<path d="M62.0537 20.776V0H65.5537V20.776H62.0537Z" fill="black"/>
<path d="M52.8266 20.972C51.6132 20.972 50.5026 20.692 49.4946 20.132C48.5052 19.572 47.7119 18.732 47.1146 17.612C46.5359 16.4733 46.2466 15.036 46.2466 13.3C46.2466 11.5453 46.5266 10.108 47.0866 8.98801C47.6652 7.86801 48.4492 7.03734 49.4386 6.49601C50.4279 5.93601 51.5572 5.65601 52.8266 5.65601C54.3012 5.65601 55.5986 5.97334 56.7186 6.60801C57.8572 7.24267 58.7532 8.12934 59.4066 9.26801C60.0786 10.4067 60.4146 11.7507 60.4146 13.3C60.4146 14.8493 60.0786 16.2027 59.4066 17.36C58.7532 18.4987 57.8572 19.3853 56.7186 20.02C55.5986 20.6547 54.3012 20.972 52.8266 20.972ZM44.5386 26.208V5.82401H47.8706V9.35201L47.7586 13.328L48.0386 17.304V26.208H44.5386ZM52.4346 17.976C53.2746 17.976 54.0212 17.7893 54.6746 17.416C55.3466 17.0427 55.8786 16.5013 56.2706 15.792C56.6626 15.0827 56.8586 14.252 56.8586 13.3C56.8586 12.3293 56.6626 11.4987 56.2706 10.808C55.8786 10.0987 55.3466 9.55734 54.6746 9.18401C54.0212 8.81067 53.2746 8.62401 52.4346 8.62401C51.5946 8.62401 50.8386 8.81067 50.1666 9.18401C49.4946 9.55734 48.9626 10.0987 48.5706 10.808C48.1786 11.4987 47.9826 12.3293 47.9826 13.3C47.9826 14.252 48.1786 15.0827 48.5706 15.792C48.9626 16.5013 49.4946 17.0427 50.1666 17.416C50.8386 17.7893 51.5946 17.976 52.4346 17.976Z" fill="black"/>
<path d="M35.6137 5.65601C36.8084 5.65601 37.863 5.88934 38.7777 6.35601C39.711 6.82267 40.439 7.54134 40.9617 8.51201C41.4844 9.46401 41.7457 10.696 41.7457 12.208V20.776H38.2457V12.656C38.2457 11.3307 37.9564 10.3413 37.3777 9.68801C36.799 9.03467 35.9684 8.70801 34.8857 8.70801C34.1204 8.70801 33.439 8.87601 32.8417 9.21201C32.263 9.54801 31.8057 10.0427 31.4697 10.696C31.1524 11.3493 30.9937 12.18 30.9937 13.188V20.776H27.4937V12.656C27.4937 11.3307 27.2044 10.3413 26.6257 9.68801C26.047 9.03467 25.2164 8.70801 24.1337 8.70801C23.3684 8.70801 22.687 8.87601 22.0897 9.21201C21.511 9.54801 21.0537 10.0427 20.7177 10.696C20.4004 11.3493 20.2417 12.18 20.2417 13.188V20.776H16.7417V5.82401H20.0737V9.80001L19.4857 8.62401C19.9897 7.65334 20.7177 6.91601 21.6697 6.41201C22.6404 5.90801 23.7417 5.65601 24.9737 5.65601C26.3737 5.65601 27.587 6.00134 28.6137 6.69201C29.659 7.38267 30.3497 8.42801 30.6857 9.828L29.3137 9.35201C29.799 8.23201 30.6017 7.33601 31.7217 6.66401C32.8417 5.99201 34.139 5.65601 35.6137 5.65601Z" fill="black"/>
<path d="M3.36 9.32403H13.104V12.32H3.36V9.32403ZM3.64 17.724H14.7V20.776H0V1.17603H14.308V4.22803H3.64V17.724Z" fill="black"/>
</svg>
