<svg width="176" height="23" viewBox="0 0 176 23" fill="none" xmlns="http://www.w3.org/2000/svg">
<path d="M168.63 17.6969V4.96073H171.469V8.46675L171.135 7.44118C171.516 6.58256 172.113 5.93065 172.923 5.48544C173.75 5.04023 174.776 4.81763 176 4.81763V7.65583C175.873 7.62403 175.754 7.60813 175.642 7.60813C175.531 7.59223 175.42 7.58428 175.309 7.58428C174.18 7.58428 173.281 7.91819 172.613 8.586C171.946 9.23792 171.612 10.2158 171.612 11.5196V17.6969H168.63Z" fill="#EE2E24"/>
<path d="M161.209 17.8638C159.794 17.8638 158.554 17.5856 157.489 17.0291C156.439 16.4567 155.621 15.6775 155.032 14.6917C154.46 13.7059 154.174 12.5849 154.174 11.3288C154.174 10.0568 154.452 8.93581 155.008 7.96589C155.581 6.98007 156.36 6.20891 157.346 5.6524C158.347 5.09588 159.484 4.81763 160.756 4.81763C161.997 4.81763 163.102 5.08793 164.072 5.62854C165.041 6.16915 165.805 6.93237 166.361 7.91819C166.918 8.90401 167.196 10.0647 167.196 11.4004C167.196 11.5276 167.188 11.6707 167.172 11.8297C167.172 11.9887 167.164 12.1397 167.148 12.2828H156.535V10.3032H165.574L164.405 10.9234C164.421 10.1919 164.27 9.54797 163.952 8.99146C163.634 8.43495 163.197 7.99769 162.641 7.67969C162.1 7.36168 161.472 7.20268 160.756 7.20268C160.025 7.20268 159.381 7.36168 158.824 7.67969C158.284 7.99769 157.855 8.4429 157.537 9.01531C157.234 9.57182 157.083 10.2317 157.083 10.9949V11.4719C157.083 12.2351 157.258 12.9109 157.608 13.4992C157.958 14.0875 158.451 14.5407 159.087 14.8587C159.723 15.1767 160.454 15.3357 161.281 15.3357C161.997 15.3357 162.641 15.2244 163.213 15.0018C163.785 14.7792 164.294 14.4294 164.739 13.9524L166.337 15.7889C165.765 16.4567 165.041 16.9734 164.167 17.3391C163.308 17.6889 162.323 17.8638 161.209 17.8638Z" fill="#EE2E24"/>
<path d="M147.53 4.81763C148.548 4.81763 149.454 5.01638 150.249 5.41389C151.06 5.8114 151.696 6.42356 152.157 7.25038C152.618 8.06129 152.849 9.11071 152.849 10.3986V17.6969H149.868V10.7802C149.868 9.65133 149.597 8.80861 149.057 8.2521C148.532 7.69559 147.793 7.41733 146.838 7.41733C146.139 7.41733 145.519 7.56043 144.978 7.84664C144.438 8.13285 144.016 8.56215 143.714 9.13457C143.428 9.69108 143.285 10.3986 143.285 11.2573V17.6969H140.303V4.96073H143.142V8.3952L142.641 7.34578C143.086 6.53486 143.73 5.91475 144.573 5.48544C145.431 5.04023 146.417 4.81763 147.53 4.81763Z" fill="#EE2E24"/>
<path d="M131.836 17.6969V4.96073H134.675V8.46675L134.341 7.44118C134.722 6.58256 135.319 5.93065 136.13 5.48544C136.956 5.04023 137.982 4.81763 139.206 4.81763V7.65583C139.079 7.62403 138.96 7.60813 138.848 7.60813C138.737 7.59223 138.626 7.58428 138.515 7.58428C137.386 7.58428 136.487 7.91819 135.819 8.586C135.152 9.23792 134.818 10.2158 134.818 11.5196V17.6969H131.836Z" fill="#EE2E24"/>
<path d="M123.62 17.8638C122.317 17.8638 121.156 17.5856 120.138 17.0291C119.121 16.4567 118.318 15.6775 117.729 14.6917C117.141 13.7059 116.847 12.5849 116.847 11.3288C116.847 10.0568 117.141 8.93581 117.729 7.96589C118.318 6.98007 119.121 6.20891 120.138 5.6524C121.156 5.09588 122.317 4.81763 123.62 4.81763C124.94 4.81763 126.109 5.09588 127.126 5.6524C128.16 6.20891 128.963 6.97212 129.535 7.94204C130.124 8.91196 130.418 10.0409 130.418 11.3288C130.418 12.5849 130.124 13.7059 129.535 14.6917C128.963 15.6775 128.16 16.4567 127.126 17.0291C126.109 17.5856 124.94 17.8638 123.62 17.8638ZM123.62 15.3118C124.352 15.3118 125.004 15.1528 125.576 14.8348C126.149 14.5168 126.594 14.0557 126.912 13.4515C127.246 12.8473 127.413 12.1397 127.413 11.3288C127.413 10.502 127.246 9.79443 126.912 9.20612C126.594 8.6019 126.149 8.14079 125.576 7.82279C125.004 7.50478 124.36 7.34578 123.644 7.34578C122.913 7.34578 122.261 7.50478 121.689 7.82279C121.132 8.14079 120.687 8.6019 120.353 9.20612C120.019 9.79443 119.852 10.502 119.852 11.3288C119.852 12.1397 120.019 12.8473 120.353 13.4515C120.687 14.0557 121.132 14.5168 121.689 14.8348C122.261 15.1528 122.905 15.3118 123.62 15.3118Z" fill="#EE2E24"/>
<path d="M110.5 17.9358C109.228 17.9358 108.044 17.7291 106.947 17.3157C105.865 16.8864 104.919 16.2901 104.108 15.5269C103.313 14.7478 102.693 13.8335 102.248 12.7841C101.803 11.7347 101.58 10.5898 101.58 9.3496C101.58 8.10938 101.803 6.96455 102.248 5.91513C102.693 4.86571 103.321 3.95939 104.132 3.19618C104.943 2.41706 105.889 1.8208 106.971 1.40739C108.052 0.978082 109.236 0.763428 110.524 0.763428C111.892 0.763428 113.14 1.00193 114.269 1.47894C115.398 1.94005 116.352 2.63172 117.131 3.55393L115.127 5.43812C114.523 4.78621 113.847 4.30125 113.1 3.98324C112.353 3.64934 111.542 3.48238 110.667 3.48238C109.793 3.48238 108.99 3.62549 108.258 3.91169C107.543 4.1979 106.915 4.60336 106.374 5.12807C105.85 5.65278 105.436 6.27289 105.134 6.98841C104.848 7.70392 104.705 8.49099 104.705 9.3496C104.705 10.2082 104.848 10.9953 105.134 11.7108C105.436 12.4263 105.85 13.0464 106.374 13.5711C106.915 14.0958 107.543 14.5013 108.258 14.7875C108.99 15.0737 109.793 15.2168 110.667 15.2168C111.542 15.2168 112.353 15.0578 113.1 14.7398C113.847 14.4059 114.523 13.905 115.127 13.2372L117.131 15.1453C116.352 16.0516 115.398 16.7433 114.269 17.2203C113.14 17.6973 111.884 17.9358 110.5 17.9358Z" fill="#EE2E24"/>
<path d="M89.9072 17.8638C88.4921 17.8638 87.2519 17.5856 86.1866 17.0291C85.1371 16.4567 84.3183 15.6775 83.73 14.6917C83.1575 13.7059 82.8713 12.5849 82.8713 11.3288C82.8713 10.0568 83.1496 8.93581 83.7061 7.96589C84.2785 6.98007 85.0576 6.20891 86.0435 5.6524C87.0452 5.09588 88.182 4.81763 89.4541 4.81763C90.6943 4.81763 91.7994 5.08793 92.7693 5.62854C93.7392 6.16915 94.5024 6.93237 95.0589 7.91819C95.6154 8.90401 95.8937 10.0647 95.8937 11.4004C95.8937 11.5276 95.8857 11.6707 95.8698 11.8297C95.8698 11.9887 95.8619 12.1397 95.846 12.2828H85.2325V10.3032H94.2719L93.1032 10.9234C93.1191 10.1919 92.968 9.54797 92.65 8.99146C92.332 8.43495 91.8948 7.99769 91.3383 7.67969C90.7976 7.36168 90.1696 7.20268 89.4541 7.20268C88.7227 7.20268 88.0787 7.36168 87.5222 7.67969C86.9816 7.99769 86.5523 8.4429 86.2343 9.01531C85.9321 9.57182 85.7811 10.2317 85.7811 10.9949V11.4719C85.7811 12.2351 85.956 12.9109 86.3058 13.4992C86.6556 14.0875 87.1485 14.5407 87.7845 14.8587C88.4205 15.1767 89.152 15.3357 89.9788 15.3357C90.6943 15.3357 91.3383 15.2244 91.9107 15.0018C92.4831 14.7792 92.9919 14.4294 93.4371 13.9524L95.0351 15.7889C94.4627 16.4567 93.7392 16.9734 92.8647 17.3391C92.0061 17.6889 91.0203 17.8638 89.9072 17.8638Z" fill="white"/>
<path d="M72.9629 22.491C72.3428 22.491 71.7226 22.3877 71.1025 22.181C70.4824 21.9743 69.9657 21.6881 69.5522 21.3224L70.7448 19.1281C71.0469 19.3984 71.3887 19.6131 71.7703 19.7721C72.1519 19.9311 72.5415 20.0106 72.939 20.0106C73.4796 20.0106 73.9169 19.8754 74.2508 19.6051C74.5847 19.3348 74.8948 18.8817 75.181 18.2457L75.9203 16.5761L76.1588 16.2184L80.9766 4.96094H83.8387L77.8761 18.7227C77.4786 19.6767 77.0334 20.432 76.5404 20.9885C76.0634 21.545 75.5228 21.9345 74.9186 22.1571C74.3303 22.3797 73.6784 22.491 72.9629 22.491ZM75.5864 18.1503L69.8385 4.96094H72.939L77.6137 15.956L75.5864 18.1503Z" fill="white"/>
<path d="M64.0462 17.8638C62.7424 17.8638 61.5817 17.5856 60.5641 17.0291C59.5464 16.4567 58.7435 15.6775 58.1552 14.6917C57.5669 13.7059 57.2727 12.5849 57.2727 11.3288C57.2727 10.0568 57.5669 8.93581 58.1552 7.96589C58.7435 6.98007 59.5464 6.20891 60.5641 5.6524C61.5817 5.09588 62.7424 4.81763 64.0462 4.81763C65.366 4.81763 66.5346 5.09588 67.5523 5.6524C68.5858 6.20891 69.3887 6.97212 69.9612 7.94204C70.5495 8.91196 70.8436 10.0409 70.8436 11.3288C70.8436 12.5849 70.5495 13.7059 69.9612 14.6917C69.3887 15.6775 68.5858 16.4567 67.5523 17.0291C66.5346 17.5856 65.366 17.8638 64.0462 17.8638ZM64.0462 15.3118C64.7777 15.3118 65.4296 15.1528 66.002 14.8348C66.5744 14.5168 67.0196 14.0557 67.3376 13.4515C67.6715 12.8473 67.8385 12.1397 67.8385 11.3288C67.8385 10.502 67.6715 9.79443 67.3376 9.20612C67.0196 8.6019 66.5744 8.14079 66.002 7.82279C65.4296 7.50478 64.7856 7.34578 64.0701 7.34578C63.3387 7.34578 62.6868 7.50478 62.1144 7.82279C61.5578 8.14079 61.1126 8.6019 60.7787 9.20612C60.4448 9.79443 60.2779 10.502 60.2779 11.3288C60.2779 12.1397 60.4448 12.8473 60.7787 13.4515C61.1126 14.0557 61.5578 14.5168 62.1144 14.8348C62.6868 15.1528 63.3307 15.3118 64.0462 15.3118Z" fill="white"/>
<path d="M52.8567 17.6971V0H55.838V17.6971H52.8567Z" fill="white"/>
<path d="M44.9975 17.8638C43.964 17.8638 43.0179 17.6253 42.1593 17.1483C41.3166 16.6713 40.6408 15.9558 40.132 15.0018C39.6391 14.0319 39.3926 12.8075 39.3926 11.3288C39.3926 9.83418 39.6311 8.60985 40.1081 7.65583C40.601 6.70182 41.2689 5.99425 42.1116 5.53314C42.9543 5.05613 43.9163 4.81763 44.9975 4.81763C46.2536 4.81763 47.3587 5.08793 48.3127 5.62854C49.2826 6.16915 50.0458 6.92442 50.6024 7.89434C51.1748 8.86426 51.461 10.0091 51.461 11.3288C51.461 12.6485 51.1748 13.8013 50.6024 14.7871C50.0458 15.7571 49.2826 16.5123 48.3127 17.0529C47.3587 17.5935 46.2536 17.8638 44.9975 17.8638ZM37.9377 22.3239V4.96073H40.7759V7.96589L40.6805 11.3527L40.9191 14.7394V22.3239H37.9377ZM44.6636 15.3118C45.3791 15.3118 46.0151 15.1528 46.5716 14.8348C47.144 14.5168 47.5972 14.0557 47.9311 13.4515C48.265 12.8473 48.432 12.1397 48.432 11.3288C48.432 10.502 48.265 9.79443 47.9311 9.20612C47.5972 8.6019 47.144 8.14079 46.5716 7.82279C46.0151 7.50478 45.3791 7.34578 44.6636 7.34578C43.9481 7.34578 43.3041 7.50478 42.7317 7.82279C42.1593 8.14079 41.7061 8.6019 41.3722 9.20612C41.0383 9.79443 40.8714 10.502 40.8714 11.3288C40.8714 12.1397 41.0383 12.8473 41.3722 13.4515C41.7061 14.0557 42.1593 14.5168 42.7317 14.8348C43.3041 15.1528 43.9481 15.3118 44.6636 15.3118Z" fill="white"/>
<path d="M30.3369 4.81763C31.3546 4.81763 32.2529 5.01638 33.0321 5.41389C33.8271 5.8114 34.4472 6.42356 34.8924 7.25038C35.3376 8.06129 35.5602 9.11071 35.5602 10.3986V17.6969H32.5789V10.7802C32.5789 9.65133 32.3324 8.80861 31.8395 8.2521C31.3466 7.69559 30.6391 7.41733 29.7168 7.41733C29.0649 7.41733 28.4846 7.56043 27.9757 7.84664C27.4828 8.13285 27.0933 8.5542 26.8071 9.11072C26.5368 9.66723 26.4016 10.3748 26.4016 11.2334V17.6969H23.4203V10.7802C23.4203 9.65133 23.1739 8.80861 22.6809 8.2521C22.188 7.69559 21.4805 7.41733 20.5582 7.41733C19.9063 7.41733 19.326 7.56043 18.8172 7.84664C18.3243 8.13285 17.9347 8.5542 17.6485 9.11072C17.3782 9.66723 17.243 10.3748 17.243 11.2334V17.6969H14.2617V4.96073H17.0999V8.3475L16.5991 7.34578C17.0284 6.51896 17.6485 5.8909 18.4594 5.46159C19.2862 5.03228 20.2243 4.81763 21.2738 4.81763C22.4663 4.81763 23.4998 5.11178 24.3743 5.7001C25.2647 6.28841 25.8531 7.17882 26.1393 8.37135L24.9706 7.96589C25.384 7.01187 26.0677 6.24866 27.0217 5.67624C27.9757 5.10383 29.0808 4.81763 30.3369 4.81763Z" fill="white"/>
<path d="M2.86206 7.9422H11.162V10.4942H2.86206V7.9422ZM3.10056 15.0973H12.5215V17.6971H0V1.00171H12.1876V3.60141H3.10056V15.0973Z" fill="white"/>
</svg>
